<svg xmlns="http://www.w3.org/2000/svg" xmlns:xlink="http://www.w3.org/1999/xlink" width="400" zoomAndPan="magnify" viewBox="0 0 300 102.749999" height="137" preserveAspectRatio="xMidYMid meet" version="1.0"><defs><g/><clipPath id="1ea29089ad"><path d="M 25.691406 23.222656 L 110.929688 23.222656 L 110.929688 81.722656 L 25.691406 81.722656 Z M 25.691406 23.222656 " clip-rule="nonzero"/></clipPath><clipPath id="2d13ecf7a9"><path d="M 37.660156 23.222656 L 98.945312 23.222656 C 102.121094 23.222656 105.164062 24.484375 107.410156 26.726562 C 109.65625 28.972656 110.917969 32.015625 110.917969 35.191406 L 110.917969 69.753906 C 110.917969 72.925781 109.65625 75.972656 107.410156 78.21875 C 105.164062 80.460938 102.121094 81.722656 98.945312 81.722656 L 37.660156 81.722656 C 34.488281 81.722656 31.441406 80.460938 29.195312 78.21875 C 26.953125 75.972656 25.691406 72.925781 25.691406 69.753906 L 25.691406 35.191406 C 25.691406 32.015625 26.953125 28.972656 29.195312 26.726562 C 31.441406 24.484375 34.488281 23.222656 37.660156 23.222656 Z M 37.660156 23.222656 " clip-rule="nonzero"/></clipPath><clipPath id="784e932c1f"><path d="M 40.476562 23.339844 L 125.703125 23.339844 L 125.703125 81.722656 L 40.476562 81.722656 Z M 40.476562 23.339844 " clip-rule="nonzero"/></clipPath><clipPath id="2b7e725cfa"><path d="M 0.363281 96 L 139 96 L 139 102 L 0.363281 102 Z M 0.363281 96 " clip-rule="nonzero"/></clipPath><clipPath id="fe83d96a2a"><path d="M 0.363281 0 L 6 0 L 6 102 L 0.363281 102 Z M 0.363281 0 " clip-rule="nonzero"/></clipPath><clipPath id="3c034fc2f8"><path d="M 161 0 L 299.636719 0 L 299.636719 7 L 161 7 Z M 161 0 " clip-rule="nonzero"/></clipPath><clipPath id="701250b76f"><path d="M 294 0 L 299.636719 0 L 299.636719 102.5 L 294 102.5 Z M 294 0 " clip-rule="nonzero"/></clipPath><clipPath id="72fbd2b04e"><path d="M 110.917969 23.222656 L 202.554688 23.222656 L 202.554688 81.722656 L 110.917969 81.722656 Z M 110.917969 23.222656 " clip-rule="nonzero"/></clipPath><clipPath id="4aa36c8187"><path d="M 123.636719 23.222656 L 189.761719 23.222656 C 193.136719 23.222656 196.371094 24.5625 198.757812 26.945312 C 201.140625 29.332031 202.480469 32.566406 202.480469 35.941406 L 202.480469 69.003906 C 202.480469 72.378906 201.140625 75.613281 198.757812 77.996094 C 196.371094 80.382812 193.136719 81.722656 189.761719 81.722656 L 123.636719 81.722656 C 120.261719 81.722656 117.027344 80.382812 114.640625 77.996094 C 112.257812 75.613281 110.917969 72.378906 110.917969 69.003906 L 110.917969 35.941406 C 110.917969 32.566406 112.257812 29.332031 114.640625 26.945312 C 117.027344 24.5625 120.261719 23.222656 123.636719 23.222656 Z M 123.636719 23.222656 " clip-rule="nonzero"/></clipPath></defs><g clip-path="url(#1ea29089ad)"><g clip-path="url(#2d13ecf7a9)"><path fill="#dc2626" d="M 25.691406 23.222656 L 110.929688 23.222656 L 110.929688 81.722656 L 25.691406 81.722656 Z M 25.691406 23.222656 " fill-opacity="1" fill-rule="nonzero"/></g></g><g clip-path="url(#784e932c1f)"><path fill="#dc2626" d="M 40.476562 23.339844 L 125.773438 23.339844 L 125.773438 81.722656 L 40.476562 81.722656 Z M 40.476562 23.339844 " fill-opacity="1" fill-rule="nonzero"/></g><g fill="#ffffff" fill-opacity="1"><g transform="translate(47.874317, 61.509416)"><g><path d="M 9.1875 0.21875 C 7.601562 0.21875 6.179688 -0.109375 4.921875 -0.765625 C 3.660156 -1.429688 2.671875 -2.351562 1.953125 -3.53125 C 1.242188 -4.707031 0.890625 -6.039062 0.890625 -7.53125 C 0.890625 -9.03125 1.242188 -10.367188 1.953125 -11.546875 C 2.671875 -12.722656 3.660156 -13.640625 4.921875 -14.296875 C 6.179688 -14.960938 7.601562 -15.296875 9.1875 -15.296875 C 10.78125 -15.296875 12.203125 -14.960938 13.453125 -14.296875 C 14.703125 -13.640625 15.679688 -12.722656 16.390625 -11.546875 C 17.097656 -10.367188 17.453125 -9.03125 17.453125 -7.53125 C 17.453125 -6.039062 17.097656 -4.707031 16.390625 -3.53125 C 15.679688 -2.351562 14.703125 -1.429688 13.453125 -0.765625 C 12.203125 -0.109375 10.78125 0.21875 9.1875 0.21875 Z M 9.1875 -3.359375 C 10.3125 -3.359375 11.234375 -3.734375 11.953125 -4.484375 C 12.671875 -5.242188 13.03125 -6.257812 13.03125 -7.53125 C 13.03125 -8.800781 12.671875 -9.8125 11.953125 -10.5625 C 11.234375 -11.320312 10.3125 -11.703125 9.1875 -11.703125 C 8.070312 -11.703125 7.148438 -11.320312 6.421875 -10.5625 C 5.691406 -9.8125 5.328125 -8.800781 5.328125 -7.53125 C 5.328125 -6.257812 5.691406 -5.242188 6.421875 -4.484375 C 7.148438 -3.734375 8.070312 -3.359375 9.1875 -3.359375 Z M 9.1875 -3.359375 "/></g></g></g><g fill="#ffffff" fill-opacity="1"><g transform="translate(68.350441, 61.509416)"><g><path d="M 11.734375 -0.734375 C 11.304688 -0.410156 10.78125 -0.171875 10.15625 -0.015625 C 9.53125 0.140625 8.875 0.21875 8.1875 0.21875 C 6.382812 0.21875 4.992188 -0.234375 4.015625 -1.140625 C 3.035156 -2.054688 2.546875 -3.40625 2.546875 -5.1875 L 2.546875 -11.375 L 0.21875 -11.375 L 0.21875 -14.734375 L 2.546875 -14.734375 L 2.546875 -18.40625 L 6.921875 -18.40625 L 6.921875 -14.734375 L 10.671875 -14.734375 L 10.671875 -11.375 L 6.921875 -11.375 L 6.921875 -5.234375 C 6.921875 -4.597656 7.082031 -4.109375 7.40625 -3.765625 C 7.738281 -3.421875 8.203125 -3.25 8.796875 -3.25 C 9.484375 -3.25 10.070312 -3.4375 10.5625 -3.8125 Z M 11.734375 -0.734375 "/></g></g></g><g fill="#ffffff" fill-opacity="1"><g transform="translate(82.664382, 61.509416)"><g><path d="M 16.78125 -7.484375 C 16.78125 -7.421875 16.753906 -7.023438 16.703125 -6.296875 L 5.296875 -6.296875 C 5.503906 -5.367188 5.988281 -4.632812 6.75 -4.09375 C 7.519531 -3.550781 8.472656 -3.28125 9.609375 -3.28125 C 10.390625 -3.28125 11.082031 -3.394531 11.6875 -3.625 C 12.300781 -3.863281 12.867188 -4.234375 13.390625 -4.734375 L 15.71875 -2.21875 C 14.300781 -0.59375 12.226562 0.21875 9.5 0.21875 C 7.800781 0.21875 6.296875 -0.109375 4.984375 -0.765625 C 3.679688 -1.429688 2.671875 -2.351562 1.953125 -3.53125 C 1.242188 -4.707031 0.890625 -6.039062 0.890625 -7.53125 C 0.890625 -9.007812 1.238281 -10.34375 1.9375 -11.53125 C 2.644531 -12.71875 3.609375 -13.640625 4.828125 -14.296875 C 6.054688 -14.960938 7.425781 -15.296875 8.9375 -15.296875 C 10.414062 -15.296875 11.75 -14.976562 12.9375 -14.34375 C 14.132812 -13.707031 15.070312 -12.796875 15.75 -11.609375 C 16.4375 -10.421875 16.78125 -9.046875 16.78125 -7.484375 Z M 8.96875 -11.984375 C 7.976562 -11.984375 7.144531 -11.703125 6.46875 -11.140625 C 5.800781 -10.585938 5.390625 -9.828125 5.234375 -8.859375 L 12.65625 -8.859375 C 12.507812 -9.804688 12.097656 -10.5625 11.421875 -11.125 C 10.753906 -11.695312 9.9375 -11.984375 8.96875 -11.984375 Z M 8.96875 -11.984375 "/></g></g></g><g fill="#ffffff" fill-opacity="1"><g transform="translate(102.468268, 61.509416)"><g><path d="M 2.015625 -20.78125 L 6.390625 -20.78125 L 6.390625 0 L 2.015625 0 Z M 2.015625 -20.78125 "/></g></g></g><g fill="#000000" fill-opacity="1"><g transform="translate(202.481358, 61.509416)"><g><path d="M 3.8125 0.363281 C 5.546875 0.363281 6.78125 -0.867188 6.78125 -2.550781 C 6.78125 -4.230469 5.546875 -5.464844 3.8125 -5.464844 C 2.046875 -5.464844 0.8125 -4.230469 0.8125 -2.550781 C 0.8125 -0.867188 2.046875 0.363281 3.8125 0.363281 Z M 3.8125 0.363281 "/></g></g></g><g fill="#000000" fill-opacity="1"><g transform="translate(210.072054, 61.509416)"><g><path d="M 9.300781 0.421875 C 13.757812 0.421875 17.007812 -2.15625 17.707031 -6.21875 L 12.609375 -6.21875 C 12.078125 -4.875 10.871094 -4.035156 9.359375 -4.035156 C 7.453125 -4.035156 6.136719 -5.40625 6.136719 -7.425781 C 6.136719 -9.414062 7.453125 -10.789062 9.359375 -10.789062 C 10.757812 -10.789062 11.910156 -10.085938 12.523438 -8.882812 L 17.566406 -8.882812 C 16.921875 -12.75 13.671875 -15.242188 9.300781 -15.242188 C 4.34375 -15.242188 0.867188 -11.992188 0.867188 -7.425781 C 0.867188 -2.800781 4.316406 0.421875 9.300781 0.421875 Z M 9.300781 0.421875 "/></g></g></g><g fill="#000000" fill-opacity="1"><g transform="translate(228.586621, 61.509416)"><g><path d="M 9.5 0.421875 C 14.625 0.421875 18.101562 -2.746094 18.101562 -7.425781 C 18.101562 -12.078125 14.625 -15.242188 9.5 -15.242188 C 4.34375 -15.242188 0.867188 -12.078125 0.867188 -7.425781 C 0.867188 -2.746094 4.34375 0.421875 9.5 0.421875 Z M 6.136719 -7.425781 C 6.136719 -9.386719 7.539062 -10.789062 9.5 -10.789062 C 11.460938 -10.789062 12.832031 -9.386719 12.832031 -7.425781 C 12.832031 -5.4375 11.460938 -4.035156 9.5 -4.035156 C 7.539062 -4.035156 6.136719 -5.4375 6.136719 -7.425781 Z M 6.136719 -7.425781 "/></g></g></g><g fill="#000000" fill-opacity="1"><g transform="translate(247.549348, 61.509416)"><g><path d="M 1.878906 0 L 7.257812 0 L 7.257812 -8.152344 C 7.257812 -9.808594 8.125 -10.789062 9.554688 -10.789062 C 10.925781 -10.789062 11.769531 -9.808594 11.769531 -8.210938 L 11.769531 0 L 17.0625 0 L 17.0625 -8.152344 C 17.0625 -9.808594 17.933594 -10.789062 19.363281 -10.789062 C 20.734375 -10.789062 21.574219 -9.808594 21.574219 -8.210938 L 21.574219 0 L 26.953125 0 L 26.953125 -8.742188 C 26.953125 -12.75 24.515625 -15.242188 20.734375 -15.242188 C 18.492188 -15.242188 16.671875 -14.402344 15.523438 -12.945312 C 14.457031 -14.429688 12.777344 -15.242188 10.757812 -15.242188 C 8.910156 -15.242188 7.339844 -14.570312 6.277344 -13.363281 L 5.742188 -14.820312 L 1.878906 -14.820312 Z M 1.878906 0 "/></g></g></g><g clip-path="url(#2b7e725cfa)"><path stroke-linecap="butt" transform="matrix(0.74818, 0, 0, 0.74818, 0.364079, 96.691596)" fill="none" stroke-linejoin="miter" d="M -0.00106642 3.49782 L 181.611625 3.49782 " stroke="#eab308" stroke-width="7" stroke-opacity="1" stroke-miterlimit="4"/></g><g clip-path="url(#fe83d96a2a)"><path stroke-linecap="butt" transform="matrix(0, -0.74818, 0.74818, 0, 0.713062, 99.305475)" fill="none" stroke-linejoin="miter" d="M 0.00105192 3.500456 L 132.604161 3.500456 " stroke="#eab308" stroke-width="7" stroke-opacity="1" stroke-miterlimit="4"/></g><g clip-path="url(#3c034fc2f8)"><path stroke-linecap="butt" transform="matrix(-0.74818, 0, 0, -0.74818, 299.63281, 6.034268)" fill="none" stroke-linejoin="miter" d="M -0.00000288413 3.502108 L 181.612689 3.502108 " stroke="#dc2626" stroke-width="7" stroke-opacity="1" stroke-miterlimit="4"/></g><g clip-path="url(#701250b76f)"><path stroke-linecap="butt" transform="matrix(0, 0.74818, -0.74818, 0, 299.282071, 3.415738)" fill="none" stroke-linejoin="miter" d="M -0.00223928 3.499171 L 130.736971 3.499171 " stroke="#dc2626" stroke-width="7" stroke-opacity="1" stroke-miterlimit="4"/></g><g clip-path="url(#72fbd2b04e)"><g clip-path="url(#4aa36c8187)"><path fill="#eab308" d="M 110.917969 23.222656 L 202.554688 23.222656 L 202.554688 81.722656 L 110.917969 81.722656 Z M 110.917969 23.222656 " fill-opacity="1" fill-rule="nonzero"/></g></g><g fill="#ffffff" fill-opacity="1"><g transform="translate(110.91713, 61.509416)"><g><path d="M 6.8125 -14.734375 L 10.671875 -14.734375 L 10.671875 -11.375 L 6.921875 -11.375 L 6.921875 0 L 2.546875 0 L 2.546875 -11.375 L 0.21875 -11.375 L 0.21875 -14.734375 L 2.546875 -14.734375 L 2.546875 -15.40625 C 2.546875 -17.125 3.054688 -18.488281 4.078125 -19.5 C 5.097656 -20.507812 6.53125 -21.015625 8.375 -21.015625 C 9.03125 -21.015625 9.648438 -20.941406 10.234375 -20.796875 C 10.828125 -20.660156 11.316406 -20.460938 11.703125 -20.203125 L 10.5625 -17.03125 C 10.0625 -17.382812 9.472656 -17.5625 8.796875 -17.5625 C 7.472656 -17.5625 6.8125 -16.832031 6.8125 -15.375 Z M 6.8125 -14.734375 "/></g></g></g><g fill="#ffffff" fill-opacity="1"><g transform="translate(123.886594, 61.509416)"><g><path d="M 2.015625 -15.078125 L 6.390625 -15.078125 L 6.390625 0 L 2.015625 0 Z M 4.203125 -17.140625 C 3.515625 -17.140625 2.945312 -17.363281 2.5 -17.8125 C 2.0625 -18.257812 1.84375 -18.832031 1.84375 -19.53125 C 1.84375 -20.195312 2.0625 -20.753906 2.5 -21.203125 C 2.945312 -21.648438 3.515625 -21.875 4.203125 -21.875 C 4.890625 -21.875 5.453125 -21.648438 5.890625 -21.203125 C 6.335938 -20.753906 6.5625 -20.195312 6.5625 -19.53125 C 6.5625 -18.832031 6.335938 -18.257812 5.890625 -17.8125 C 5.453125 -17.363281 4.890625 -17.140625 4.203125 -17.140625 Z M 4.203125 -17.140625 "/></g></g></g><g fill="#ffffff" fill-opacity="1"><g transform="translate(134.447204, 61.509416)"><g><path d="M 16.984375 -15.078125 L 10.171875 0.921875 C 9.484375 2.660156 8.628906 3.882812 7.609375 4.59375 C 6.585938 5.300781 5.359375 5.65625 3.921875 5.65625 C 3.140625 5.65625 2.363281 5.535156 1.59375 5.296875 C 0.832031 5.054688 0.207031 4.71875 -0.28125 4.28125 L 1.3125 1.171875 C 1.65625 1.472656 2.046875 1.707031 2.484375 1.875 C 2.921875 2.039062 3.351562 2.125 3.78125 2.125 C 4.375 2.125 4.859375 1.976562 5.234375 1.6875 C 5.609375 1.40625 5.945312 0.925781 6.25 0.25 L 6.296875 0.109375 L -0.21875 -15.078125 L 4.28125 -15.078125 L 8.515625 -4.84375 L 12.78125 -15.078125 Z M 16.984375 -15.078125 "/></g></g></g><g fill="#ffffff" fill-opacity="1"><g transform="translate(153.326757, 61.509416)"><g><path d="M 8.09375 -15.296875 C 10.425781 -15.296875 12.21875 -14.738281 13.46875 -13.625 C 14.726562 -12.519531 15.359375 -10.84375 15.359375 -8.59375 L 15.359375 0 L 11.265625 0 L 11.265625 -1.875 C 10.441406 -0.476562 8.910156 0.21875 6.671875 0.21875 C 5.515625 0.21875 4.507812 0.0234375 3.65625 -0.359375 C 2.800781 -0.753906 2.148438 -1.296875 1.703125 -1.984375 C 1.253906 -2.679688 1.03125 -3.46875 1.03125 -4.34375 C 1.03125 -5.738281 1.554688 -6.835938 2.609375 -7.640625 C 3.671875 -8.453125 5.304688 -8.859375 7.515625 -8.859375 L 10.984375 -8.859375 C 10.984375 -9.804688 10.691406 -10.535156 10.109375 -11.046875 C 9.535156 -11.566406 8.671875 -11.828125 7.515625 -11.828125 C 6.703125 -11.828125 5.910156 -11.695312 5.140625 -11.4375 C 4.367188 -11.1875 3.710938 -10.847656 3.171875 -10.421875 L 1.59375 -13.46875 C 2.414062 -14.050781 3.398438 -14.5 4.546875 -14.8125 C 5.703125 -15.132812 6.882812 -15.296875 8.09375 -15.296875 Z M 7.765625 -2.71875 C 8.503906 -2.71875 9.164062 -2.890625 9.75 -3.234375 C 10.332031 -3.578125 10.742188 -4.085938 10.984375 -4.765625 L 10.984375 -6.296875 L 7.984375 -6.296875 C 6.191406 -6.296875 5.296875 -5.707031 5.296875 -4.53125 C 5.296875 -3.976562 5.515625 -3.535156 5.953125 -3.203125 C 6.390625 -2.878906 6.992188 -2.71875 7.765625 -2.71875 Z M 7.765625 -2.71875 "/></g></g></g><g fill="#ffffff" fill-opacity="1"><g transform="translate(172.738505, 61.509416)"><g><path d="M 11.734375 -0.734375 C 11.304688 -0.410156 10.78125 -0.171875 10.15625 -0.015625 C 9.53125 0.140625 8.875 0.21875 8.1875 0.21875 C 6.382812 0.21875 4.992188 -0.234375 4.015625 -1.140625 C 3.035156 -2.054688 2.546875 -3.40625 2.546875 -5.1875 L 2.546875 -11.375 L 0.21875 -11.375 L 0.21875 -14.734375 L 2.546875 -14.734375 L 2.546875 -18.40625 L 6.921875 -18.40625 L 6.921875 -14.734375 L 10.671875 -14.734375 L 10.671875 -11.375 L 6.921875 -11.375 L 6.921875 -5.234375 C 6.921875 -4.597656 7.082031 -4.109375 7.40625 -3.765625 C 7.738281 -3.421875 8.203125 -3.25 8.796875 -3.25 C 9.484375 -3.25 10.070312 -3.4375 10.5625 -3.8125 Z M 11.734375 -0.734375 "/></g></g></g></svg>