<?xml version="1.0" standalone="no"?>
<!DOCTYPE svg PUBLIC "-//W3C//DTD SVG 20010904//EN"
 "http://www.w3.org/TR/2001/REC-SVG-20010904/DTD/svg10.dtd">
<svg version="1.0" xmlns="http://www.w3.org/2000/svg"
 width="102.000000pt" height="102.000000pt" viewBox="0 0 102.000000 102.000000"
 preserveAspectRatio="xMidYMid meet">
<metadata>
Created by potrace 1.14, written by Peter Selinger 2001-2017
</metadata>
<g transform="translate(0.000000,102.000000) scale(0.100000,-0.100000)"
fill="#000000" stroke="none">
<path d="M11 595 l0 -415 37 0 37 0 -2 380 -1 380 254 0 c162 0 254 4 255 10
1 6 2 20 2 33 l1 22 -291 3 -292 2 0 -415z"/>
<path d="M554 921 c-3 -3 -83 -6 -177 -6 -164 0 -174 -1 -205 -23 -67 -48 -69
-63 -68 -387 1 -421 -17 -403 406 -401 307 2 314 4 367 73 l28 36 3 291 c3
327 2 330 -72 390 -35 29 -39 30 -156 31 -67 0 -123 -2 -126 -4z"/>
<path d="M940 455 c0 -293 -3 -375 -12 -376 -7 0 -121 -1 -253 -1 -137 0 -242
-4 -246 -9 -3 -5 -4 -22 -1 -37 l4 -27 286 1 287 1 3 412 2 411 -35 0 -35 0 0
-375z"/>
</g>
</svg>
